<svg width="32" height="32" viewBox="0 0 32 32" fill="none" xmlns="http://www.w3.org/2000/svg">
<path d="M0 16C0 7.16344 7.16344 0 16 0C24.8366 0 32 7.16344 32 16C32 24.8366 24.8366 32 16 32C7.16344 32 0 24.8366 0 16Z" fill="#005061"/>
<path d="M22.6666 13.0342C22.6666 13.4742 22.3066 13.8342 21.8666 13.8342H10.1333C9.69331 13.8342 9.33331 13.4742 9.33331 13.0342V13.0276C9.33331 11.5009 10.5666 10.2676 12.0933 10.2676H19.9C21.4266 10.2676 22.6666 11.5076 22.6666 13.0342Z" fill="white"/>
<path d="M9.33331 15.634V18.974C9.33331 20.5006 10.5666 21.734 12.0933 21.734H19.9C21.4266 21.734 22.6666 20.494 22.6666 18.9673V15.634C22.6666 15.194 22.3066 14.834 21.8666 14.834H10.1333C9.69331 14.834 9.33331 15.194 9.33331 15.634ZM13.3333 19.5007H12C11.7266 19.5007 11.5 19.274 11.5 19.0007C11.5 18.7273 11.7266 18.5007 12 18.5007H13.3333C13.6066 18.5007 13.8333 18.7273 13.8333 19.0007C13.8333 19.274 13.6066 19.5007 13.3333 19.5007ZM17.6666 19.5007H15C14.7266 19.5007 14.5 19.274 14.5 19.0007C14.5 18.7273 14.7266 18.5007 15 18.5007H17.6666C17.94 18.5007 18.1666 18.7273 18.1666 19.0007C18.1666 19.274 17.94 19.5007 17.6666 19.5007Z" fill="white"/>
</svg>
