<svg width="32" height="32" viewBox="0 0 32 32" fill="none" xmlns="http://www.w3.org/2000/svg">
<path d="M0 16C0 7.16344 7.16344 0 16 0C24.8366 0 32 7.16344 32 16C32 24.8366 24.8366 32 16 32C7.16344 32 0 24.8366 0 16Z" fill="#F97316"/>
<path d="M22.6667 15.3128V16.6861C22.6667 17.0528 22.3733 17.3528 22 17.3661H20.6933C19.9733 17.3661 19.3133 16.8395 19.2533 16.1195C19.2133 15.6995 19.3733 15.3061 19.6533 15.0328C19.9 14.7795 20.24 14.6328 20.6133 14.6328H22C22.3733 14.6461 22.6667 14.9461 22.6667 15.3128Z" fill="white"/>
<path d="M21.6466 18.3673H20.6933C19.4266 18.3673 18.36 17.414 18.2533 16.2007C18.1933 15.5073 18.4466 14.814 18.9533 14.3207C19.38 13.8807 19.9733 13.634 20.6133 13.634H21.6466C21.84 13.634 22 13.474 21.98 13.2807C21.8333 11.6607 20.76 10.554 19.1666 10.3673C19.0066 10.3407 18.84 10.334 18.6666 10.334H12.6666C12.48 10.334 12.3 10.3473 12.1266 10.374C10.4266 10.5873 9.33331 11.854 9.33331 13.6673V18.334C9.33331 20.174 10.8266 21.6673 12.6666 21.6673H18.6666C20.5333 21.6673 21.82 20.5007 21.98 18.7207C22 18.5273 21.84 18.3673 21.6466 18.3673ZM16.6666 14.5007H12.6666C12.3933 14.5007 12.1666 14.274 12.1666 14.0007C12.1666 13.7273 12.3933 13.5007 12.6666 13.5007H16.6666C16.94 13.5007 17.1666 13.7273 17.1666 14.0007C17.1666 14.274 16.94 14.5007 16.6666 14.5007Z" fill="white"/>
</svg>
