<svg width="32" height="32" viewBox="0 0 32 32" fill="none" xmlns="http://www.w3.org/2000/svg">
<path d="M0 16C0 7.16344 7.16344 0 16 0C24.8366 0 32 7.16344 32 16C32 24.8366 24.8366 32 16 32C7.16344 32 0 24.8366 0 16Z" fill="#F59E0B"/>
<path d="M15.5 13.3867V15.2934L14.8267 15.0601C14.4867 14.9401 14.28 14.8267 14.28 14.2467C14.28 13.7734 14.6334 13.3867 15.0667 13.3867H15.5Z" fill="white"/>
<path d="M17.72 17.7537C17.72 18.227 17.3667 18.6137 16.9333 18.6137H16.5V16.707L17.1733 16.9404C17.5133 17.0604 17.72 17.1737 17.72 17.7537Z" fill="#55676B"/>
<path d="M18.7934 9.33398H13.2067C10.78 9.33398 9.33337 10.7807 9.33337 13.2073V18.794C9.33337 21.2207 10.78 22.6673 13.2067 22.6673H18.7934C21.22 22.6673 22.6667 21.2207 22.6667 18.794V13.2073C22.6667 10.7807 21.22 9.33398 18.7934 9.33398ZM17.5067 16.0007C18.0267 16.1807 18.72 16.5607 18.72 17.754C18.72 18.7807 17.92 19.614 16.9334 19.614H16.5V20.0007C16.5 20.274 16.2734 20.5007 16 20.5007C15.7267 20.5007 15.5 20.274 15.5 20.0007V19.614H15.26C14.1667 19.614 13.28 18.6873 13.28 17.554C13.28 17.2807 13.5 17.054 13.78 17.054C14.0534 17.054 14.28 17.2807 14.28 17.554C14.28 18.1407 14.72 18.614 15.26 18.614H15.5V16.354L14.4934 16.0007C13.9734 15.8207 13.28 15.4407 13.28 14.2473C13.28 13.2207 14.08 12.3873 15.0667 12.3873H15.5V12.0007C15.5 11.7273 15.7267 11.5007 16 11.5007C16.2734 11.5007 16.5 11.7273 16.5 12.0007V12.3873H16.74C17.8334 12.3873 18.72 13.314 18.72 14.4473C18.72 14.7207 18.5 14.9473 18.22 14.9473C17.9467 14.9473 17.72 14.7207 17.72 14.4473C17.72 13.8607 17.28 13.3873 16.74 13.3873H16.5V15.6473L17.5067 16.0007Z" fill="white"/>
</svg>
