<svg width="16" height="17" viewBox="0 0 16 17" fill="none" xmlns="http://www.w3.org/2000/svg">
<path d="M5.78125 10.0936C5.78125 10.9536 6.44125 11.6469 7.26125 11.6469H8.93458C9.64792 11.6469 10.2279 11.0403 10.2279 10.2936C10.2279 9.48026 9.87458 9.19359 9.34792 9.00693L6.66125 8.07359C6.13458 7.88693 5.78125 7.60026 5.78125 6.78693C5.78125 6.04026 6.36125 5.43359 7.07458 5.43359H8.74792C9.56792 5.43359 10.2279 6.12693 10.2279 6.98693" stroke="white" stroke-width="1.5" stroke-linecap="round" stroke-linejoin="round"/>
<path d="M8 4.54102V12.541" stroke="white" stroke-width="1.5" stroke-linecap="round" stroke-linejoin="round"/>
<path d="M10 15.2083H6.00001C2.66668 15.2083 1.33334 13.875 1.33334 10.5417V6.54167C1.33334 3.20833 2.66668 1.875 6.00001 1.875H10C13.3333 1.875 14.6667 3.20833 14.6667 6.54167V10.5417C14.6667 13.875 13.3333 15.2083 10 15.2083Z" stroke="white" stroke-width="1.5" stroke-linecap="round" stroke-linejoin="round"/>
</svg>
