<svg width="32" height="32" viewBox="0 0 32 32" fill="none" xmlns="http://www.w3.org/2000/svg">
<path d="M0 16C0 7.16344 7.16344 0 16 0C24.8366 0 32 7.16344 32 16C32 24.8366 24.8366 32 16 32C7.16344 32 0 24.8366 0 16Z" fill="#9333EA"/>
<path d="M22.6667 15.166C22.94 15.166 23.1667 14.9393 23.1667 14.666V13.9993C23.1667 11.0593 22.2734 10.166 19.3334 10.166H15.1667V11.666C15.1667 11.9393 14.94 12.166 14.6667 12.166C14.3934 12.166 14.1667 11.9393 14.1667 11.666V10.166H12.6667C9.72671 10.166 8.83337 11.0593 8.83337 13.9993V14.3327C8.83337 14.606 9.06004 14.8327 9.33337 14.8327C9.97337 14.8327 10.5 15.3593 10.5 15.9993C10.5 16.6393 9.97337 17.166 9.33337 17.166C9.06004 17.166 8.83337 17.3927 8.83337 17.666V17.9993C8.83337 20.9393 9.72671 21.8327 12.6667 21.8327H14.1667V20.3327C14.1667 20.0593 14.3934 19.8327 14.6667 19.8327C14.94 19.8327 15.1667 20.0593 15.1667 20.3327V21.8327H19.3334C22.2734 21.8327 23.1667 20.9393 23.1667 17.9993C23.1667 17.726 22.94 17.4993 22.6667 17.4993C22.0267 17.4993 21.5 16.9727 21.5 16.3327C21.5 15.6927 22.0267 15.166 22.6667 15.166ZM15.1667 17.446C15.1667 17.7193 14.94 17.946 14.6667 17.946C14.3934 17.946 14.1667 17.7193 14.1667 17.446V14.5527C14.1667 14.2793 14.3934 14.0527 14.6667 14.0527C14.94 14.0527 15.1667 14.2793 15.1667 14.5527V17.446Z" fill="white"/>
</svg>
