<svg width="32" height="33" viewBox="0 0 32 33" fill="none" xmlns="http://www.w3.org/2000/svg">
<rect y="0.541016" width="32" height="32" rx="8" fill="white"/>
<rect width="16" height="16" transform="translate(8 8.54102)" fill="white"/>
<path d="M21.3333 12.2077C21.8856 12.2077 22.3333 11.76 22.3333 11.2077C22.3333 10.6554 21.8856 10.2077 21.3333 10.2077V12.2077ZM11.6667 12.2077L21.3333 12.2077V10.2077L11.6667 10.2077V12.2077ZM11.6667 15.541L17 15.541V13.541L11.6667 13.541V15.541ZM11 12.8743C11 12.5062 11.2985 12.2077 11.6667 12.2077V10.2077C10.1939 10.2077 9.00002 11.4016 9.00002 12.8743H11ZM9.00002 12.8743C9.00002 14.3471 10.1939 15.541 11.6667 15.541V13.541C11.2985 13.541 11 13.2425 11 12.8743H9.00002Z" fill="#14B8A6"/>
<path d="M11 16.541V12.8743H9V16.541H11Z" fill="#14B8A6"/>
<path d="M10 14.041H9.5V14.541L9.5 20.541L9.5 20.5739C9.49997 21.0172 9.49995 21.3991 9.54107 21.7049C9.58514 22.0327 9.68451 22.3468 9.93934 22.6017L10.2929 22.2481L9.93934 22.6017C10.1942 22.8565 10.5083 22.9559 10.8361 22.9999C11.1419 23.0411 11.5238 23.041 11.9671 23.041L12 23.041H20C20.011 23.041 20.022 23.041 20.0329 23.041C20.4762 23.041 20.8581 23.0411 21.1639 22.9999C21.4917 22.9559 21.8058 22.8565 22.0607 22.6017C22.3155 22.3468 22.4149 22.0327 22.4589 21.7049C22.5 21.3991 22.5 21.0172 22.5 20.5739C22.5 20.563 22.5 20.552 22.5 20.541V20.041H22H20C19.1716 20.041 18.5 19.3694 18.5 18.541C18.5 17.7126 19.1716 17.041 20 17.041H22H22.5V16.541L22.5 16.5081C22.5 16.0649 22.5 15.683 22.4589 15.3771C22.4149 15.0494 22.3155 14.7352 22.0607 14.4804C21.8058 14.2255 21.4917 14.1262 21.1639 14.0821C20.8581 14.041 20.4762 14.041 20.0329 14.041L20 14.041L10 14.041Z" fill="#14B8A6" stroke="#14B8A6"/>
</svg>
