<svg width="32" height="32" viewBox="0 0 32 32" fill="none" xmlns="http://www.w3.org/2000/svg">
<path d="M0 16C0 7.16344 7.16344 0 16 0C24.8366 0 32 7.16344 32 16C32 24.8366 24.8366 32 16 32C7.16344 32 0 24.8366 0 16Z" fill="#FFCB00"/>
<path d="M19.3334 10.334H12.6667C10.6667 10.334 9.33337 11.334 9.33337 13.6673V18.334C9.33337 20.6673 10.6667 21.6673 12.6667 21.6673H19.3334C21.3334 21.6673 22.6667 20.6673 22.6667 18.334V13.6673C22.6667 11.334 21.3334 10.334 19.3334 10.334ZM12.1667 17.6673C12.1667 17.9407 11.94 18.1673 11.6667 18.1673C11.3934 18.1673 11.1667 17.9407 11.1667 17.6673V14.334C11.1667 14.0607 11.3934 13.834 11.6667 13.834C11.94 13.834 12.1667 14.0607 12.1667 14.334V17.6673ZM16 18.0007C14.8934 18.0007 14 17.1073 14 16.0007C14 14.894 14.8934 14.0007 16 14.0007C17.1067 14.0007 18 14.894 18 16.0007C18 17.1073 17.1067 18.0007 16 18.0007ZM20.8334 17.6673C20.8334 17.9407 20.6067 18.1673 20.3334 18.1673C20.06 18.1673 19.8334 17.9407 19.8334 17.6673V14.334C19.8334 14.0607 20.06 13.834 20.3334 13.834C20.6067 13.834 20.8334 14.0607 20.8334 14.334V17.6673Z" fill="white"/>
</svg>
