<svg width="32" height="33" viewBox="0 0 32 33" fill="none" xmlns="http://www.w3.org/2000/svg">
<rect y="0.541016" width="32" height="32" rx="8" fill="white"/>
<path d="M11.8267 19.2083C11.9 18.8817 11.7667 18.415 11.5333 18.1817L9.91332 16.5617C9.40665 16.055 9.20665 15.515 9.35332 15.0483C9.50665 14.5817 9.97999 14.2617 10.6867 14.1417L12.7667 13.795C13.0667 13.7417 13.4333 13.475 13.5733 13.2017L14.72 10.9017C15.0533 10.2417 15.5067 9.875 16 9.875C16.4933 9.875 16.9467 10.2417 17.28 10.9017L18.4267 13.2017C18.5133 13.375 18.6933 13.5417 18.8867 13.655L11.7067 20.835C11.6133 20.9283 11.4533 20.8417 11.48 20.7083L11.8267 19.2083Z" fill="#F59E0B"/>
<path d="M20.4667 18.1803C20.2267 18.4203 20.0933 18.8803 20.1733 19.207L20.6333 21.2136C20.8267 22.047 20.7067 22.6736 20.2933 22.9736C20.1267 23.0936 19.9267 23.1536 19.6933 23.1536C19.3533 23.1536 18.9533 23.027 18.5133 22.767L16.56 21.607C16.2533 21.427 15.7467 21.427 15.44 21.607L13.4867 22.767C12.7467 23.2003 12.1133 23.2736 11.7067 22.9736C11.5533 22.8603 11.44 22.707 11.3667 22.507L19.4733 14.4003C19.78 14.0936 20.2133 13.9536 20.6333 14.027L21.3067 14.1403C22.0133 14.2603 22.4867 14.5803 22.64 15.047C22.7867 15.5136 22.5867 16.0536 22.08 16.5603L20.4667 18.1803Z" fill="#F59E0B"/>
</svg>
