<svg width="32" height="32" viewBox="0 0 32 32" fill="none" xmlns="http://www.w3.org/2000/svg">
<path d="M0 16C0 7.16344 7.16344 0 16 0C24.8366 0 32 7.16344 32 16C32 24.8366 24.8366 32 16 32C7.16344 32 0 24.8366 0 16Z" fill="#F43F5E"/>
<path d="M20.7134 17.4931C20.5201 17.6864 20.2134 17.6864 20.0267 17.4931C19.8334 17.2997 19.8334 16.9931 20.0267 16.8064C21.3601 15.4731 21.3601 13.3064 20.0267 11.9797C18.6934 10.6531 16.5267 10.6464 15.2001 11.9797C13.8734 13.3131 13.8667 15.4797 15.2001 16.8064C15.3934 16.9997 15.3934 17.3064 15.2001 17.4931C15.0067 17.6864 14.7001 17.6864 14.5134 17.4931C12.8001 15.7797 12.8001 12.9931 14.5134 11.2864C16.2267 9.57974 19.0134 9.57307 20.7201 11.2864C22.4267 12.9997 22.4267 15.7797 20.7134 17.4931Z" fill="white"/>
<path d="M11.2867 14.5063C11.48 14.313 11.7867 14.313 11.9734 14.5063C12.1667 14.6997 12.1667 15.0063 11.9734 15.193C10.64 16.5263 10.64 18.693 11.9734 20.0197C13.3067 21.3463 15.4734 21.353 16.8 20.0197C18.1267 18.6863 18.1334 16.5197 16.8 15.193C16.6067 14.9997 16.6067 14.693 16.8 14.5063C16.9934 14.313 17.3 14.313 17.4867 14.5063C19.2 16.2197 19.2 19.0063 17.4867 20.713C15.7734 22.4197 12.9867 22.4263 11.28 20.713C9.57336 18.9997 9.57336 16.2197 11.2867 14.5063Z" fill="white"/>
</svg>
