<svg width="16" height="17" viewBox="0 0 16 17" fill="none" xmlns="http://www.w3.org/2000/svg">
<path d="M14.1666 6.64146C12.6266 4.22146 10.3733 2.82812 7.99998 2.82812C6.81331 2.82812 5.65998 3.17479 4.60665 3.82146C3.55331 4.47479 2.60665 5.42812 1.83331 6.64146C1.16665 7.68812 1.16665 9.38812 1.83331 10.4348C3.37331 12.8615 5.62665 14.2481 7.99998 14.2481C9.18665 14.2481 10.34 13.9015 11.3933 13.2548C12.4466 12.6015 13.3933 11.6481 14.1666 10.4348C14.8333 9.39479 14.8333 7.68812 14.1666 6.64146ZM7.99998 11.2348C6.50665 11.2348 5.30665 10.0281 5.30665 8.54146C5.30665 7.05479 6.50665 5.84812 7.99998 5.84812C9.49331 5.84812 10.6933 7.05479 10.6933 8.54146C10.6933 10.0281 9.49331 11.2348 7.99998 11.2348Z" fill="white"/>
<path d="M7.99998 6.63477C6.95331 6.63477 6.09998 7.4881 6.09998 8.54143C6.09998 9.5881 6.95331 10.4414 7.99998 10.4414C9.04664 10.4414 9.90664 9.5881 9.90664 8.54143C9.90664 7.49477 9.04664 6.63477 7.99998 6.63477Z" fill="white"/>
</svg>
