<svg width="16" height="17" viewBox="0 0 16 17" fill="none" xmlns="http://www.w3.org/2000/svg">
<path d="M2.77992 10.7415L5.79992 13.7615C7.03992 15.0015 9.05325 15.0015 10.2999 13.7615L13.2266 10.8349C14.4666 9.59487 14.4666 7.58154 13.2266 6.33487L10.1999 3.32154C9.56659 2.6882 8.69325 2.3482 7.79992 2.39487L4.46658 2.55487C3.13325 2.61487 2.07325 3.67487 2.00658 5.00154L1.84658 8.33487C1.80658 9.23487 2.14659 10.1082 2.77992 10.7415Z" stroke="white" stroke-width="1.5" stroke-linecap="round" stroke-linejoin="round"/>
<path d="M6.33326 8.54036C7.25374 8.54036 7.99993 7.79417 7.99993 6.8737C7.99993 5.95322 7.25374 5.20703 6.33326 5.20703C5.41279 5.20703 4.6666 5.95322 4.6666 6.8737C4.6666 7.79417 5.41279 8.54036 6.33326 8.54036Z" stroke="white" stroke-width="1.5" stroke-linecap="round"/>
</svg>
