<svg width="32" height="32" viewBox="0 0 32 32" fill="none" xmlns="http://www.w3.org/2000/svg">
<path d="M0 16C0 7.16344 7.16344 0 16 0C24.8366 0 32 7.16344 32 16C32 24.8366 24.8366 32 16 32C7.16344 32 0 24.8366 0 16Z" fill="#5EEAD4"/>
<path d="M16 9.33398C12.32 9.33398 9.33337 12.3207 9.33337 16.0007C9.33337 19.6807 12.32 22.6673 16 22.6673C19.68 22.6673 22.6667 19.6807 22.6667 16.0007C22.6667 12.3207 19.68 9.33398 16 9.33398ZM15.2867 19.434C15.2867 19.5007 15.2734 19.5607 15.2467 19.6273C15.1934 19.7473 15.1 19.8473 14.9734 19.9007C14.9134 19.9273 14.8467 19.9407 14.78 19.9407C14.7134 19.9407 14.6534 19.9273 14.5867 19.9007C14.5267 19.874 14.4734 19.8407 14.4267 19.794L12.4 17.7673C12.2067 17.574 12.2067 17.254 12.4 17.0607C12.5934 16.8673 12.9134 16.8673 13.1067 17.0607L14.28 18.234V12.5673C14.28 12.294 14.5067 12.0673 14.78 12.0673C15.0534 12.0673 15.28 12.294 15.28 12.5673V19.434H15.2867ZM19.5934 14.9473C19.4934 15.0473 19.3667 15.094 19.24 15.094C19.1134 15.094 18.9867 15.0473 18.8867 14.9473L17.7134 13.774V19.4407C17.7134 19.714 17.4867 19.9407 17.2134 19.9407C16.94 19.9407 16.7134 19.714 16.7134 19.4407V12.5673C16.7134 12.5007 16.7267 12.4407 16.7534 12.374C16.8067 12.254 16.9 12.154 17.0267 12.1007C17.1467 12.0473 17.2867 12.0473 17.4067 12.1007C17.4667 12.1273 17.52 12.1607 17.5667 12.2073L19.5934 14.234C19.7867 14.434 19.7867 14.7473 19.5934 14.9473Z" fill="white"/>
</svg>
