<svg width="16" height="17" viewBox="0 0 16 17" fill="none" xmlns="http://www.w3.org/2000/svg">
<path d="M8.66666 6.54102H4.66666" stroke="white" stroke-width="1.5" stroke-linecap="round" stroke-linejoin="round"/>
<path d="M14.6667 7.8538V9.22717C14.6667 9.59384 14.3734 9.89381 14 9.90715H12.6933C11.9733 9.90715 11.3134 9.38048 11.2534 8.66048C11.2134 8.24048 11.3734 7.84715 11.6534 7.57381C11.9 7.32048 12.24 7.17383 12.6134 7.17383H14C14.3734 7.18716 14.6667 7.48713 14.6667 7.8538Z" stroke="white" stroke-width="1.5" stroke-linecap="round" stroke-linejoin="round"/>
<path d="M11.6533 7.57499C11.3733 7.84833 11.2133 8.24166 11.2533 8.66166C11.3133 9.38166 11.9733 9.90833 12.6933 9.90833H14V10.875C14 12.875 12.6667 14.2083 10.6667 14.2083H4.66668C2.66668 14.2083 1.33334 12.875 1.33334 10.875V6.20833C1.33334 4.395 2.42668 3.12833 4.12668 2.915C4.30001 2.88833 4.48001 2.875 4.66668 2.875H10.6667C10.84 2.875 11.0067 2.88166 11.1667 2.90833C12.8867 3.10833 14 4.38167 14 6.20833V7.17501H12.6133C12.24 7.17501 11.9 7.32166 11.6533 7.57499Z" stroke="white" stroke-width="1.5" stroke-linecap="round" stroke-linejoin="round"/>
</svg>
