<svg width="48" height="48" viewBox="0 0 48 48" fill="none" xmlns="http://www.w3.org/2000/svg">
<mask id="mask0_552_308" style="mask-type:alpha" maskUnits="userSpaceOnUse" x="0" y="0" width="48" height="48">
<circle cx="24" cy="24" r="24" fill="#C4C4C4"/>
</mask>
<g mask="url(#mask0_552_308)">
<rect x="-1" y="1" width="52" height="47" rx="2" fill="white"/>
<mask id="mask1_552_308" style="mask-type:alpha" maskUnits="userSpaceOnUse" x="-1" y="1" width="52" height="47">
<rect x="-1" y="1" width="52" height="47" rx="2" fill="white"/>
</mask>
<g mask="url(#mask1_552_308)">
<rect x="-1" y="1" width="52" height="47" fill="#043CAE"/>
<path fill-rule="evenodd" clip-rule="evenodd" d="M23.2491 11.0484L25 10.3995L26.751 11.0484L26.2381 8.83279L26.751 6.61719L25 7.26612L23.2491 6.61719L23.762 8.83279L23.2491 11.0484ZM23.2491 42.3817L25 41.7328L26.751 42.3817L26.2381 40.1661L26.751 37.9505L25 38.5995L23.2491 37.9505L23.762 40.1661L23.2491 42.3817ZM37.381 26.0661L35.6301 26.7151L36.1429 24.4995L35.6301 22.2839L37.381 22.9328L39.1319 22.2839L38.6191 24.4995L39.1319 26.7151L37.381 26.0661ZM10.8682 26.7151L12.6191 26.0661L14.37 26.7151L13.8572 24.4995L14.37 22.2839L12.6191 22.9328L10.8682 22.2839L11.381 24.4995L10.8682 26.7151ZM35.7223 18.2328L33.9713 18.8817L34.4842 16.6661L33.9713 14.4505L35.7223 15.0995L37.4732 14.4505L36.9604 16.6661L37.4732 18.8817L35.7223 18.2328ZM12.5269 34.5484L14.2778 33.8995L16.0288 34.5484L15.5159 32.3328L16.0288 30.1172L14.2778 30.7661L12.5269 30.1172L13.0397 32.3328L12.5269 34.5484ZM31.1905 12.4984L29.4396 13.1473L29.9524 10.9317L29.4396 8.71612L31.1905 9.36506L32.9415 8.71612L32.4286 10.9317L32.9415 13.1473L31.1905 12.4984ZM17.0586 40.2828L18.8096 39.6339L20.5605 40.2828L20.0477 38.0672L20.5605 35.8516L18.8096 36.5005L17.0586 35.8516L17.5715 38.0672L17.0586 40.2828ZM35.7223 33.8995L33.9713 34.5484L34.4842 32.3328L33.9713 30.1172L35.7223 30.7661L37.4732 30.1172L36.9604 32.3328L37.4732 34.5484L35.7223 33.8995ZM12.5269 18.8817L14.2778 18.2328L16.0288 18.8817L15.5159 16.6661L16.0288 14.4505L14.2778 15.0995L12.5269 14.4505L13.0397 16.6661L12.5269 18.8817ZM31.1905 39.6339L29.4396 40.2828L29.9524 38.0672L29.4396 35.8516L31.1905 36.5005L32.9415 35.8516L32.4286 38.0672L32.9415 40.2828L31.1905 39.6339ZM17.0586 13.1473L18.8096 12.4984L20.5605 13.1473L20.0477 10.9317L20.5605 8.71612L18.8096 9.36506L17.0586 8.71612L17.5715 10.9317L17.0586 13.1473Z" fill="#FFD429"/>
</g>
</g>
</svg>
